<?xml version="1.0" encoding="UTF-8" standalone="no"?>
<svg
   width="400"
   height="100"
   viewBox="0 0 467.54069 116.88517"
   class="looka-1j8o68f"
   version="1.1"
   id="svg4"
   sodipodi:docname="log2.svg"
   inkscape:version="1.4.3 (fcd0343856, 2026-01-01)"
   inkscape:export-filename="log2.png"
   inkscape:export-xdpi="96"
   inkscape:export-ydpi="96"
   xmlns:inkscape="http://www.inkscape.org/namespaces/inkscape"
   xmlns:sodipodi="http://sodipodi.sourceforge.net/DTD/sodipodi-0.dtd"
   xmlns="http://www.w3.org/2000/svg"
   xmlns:svg="http://www.w3.org/2000/svg">
  <sodipodi:namedview
     id="namedview4"
     pagecolor="#ffffff"
     bordercolor="#000000"
     borderopacity="0.25"
     inkscape:showpageshadow="2"
     inkscape:pageopacity="0.0"
     inkscape:pagecheckerboard="0"
     inkscape:deskcolor="#d1d1d1"
     showguides="true"
     inkscape:zoom="2.33"
     inkscape:cx="157.93991"
     inkscape:cy="28.755365"
     inkscape:window-width="1920"
     inkscape:window-height="1084"
     inkscape:window-x="0"
     inkscape:window-y="0"
     inkscape:window-maximized="1"
     inkscape:current-layer="svg4">
    <sodipodi:guide
       position="53.676882,58.693412"
       orientation="0,-1"
       id="guide4"
       inkscape:locked="false" />
    <sodipodi:guide
       position="233.26869,154.50915"
       orientation="1,0"
       id="guide5"
       inkscape:locked="false" />
  </sodipodi:namedview>
  <defs
     id="SvgjsDefs1496" />
  <g
     id="SvgjsG1497"
     featurekey="OsJwIr-0"
     transform="matrix(0.74992341,0,0,0.74992341,27.105182,20.780435)"
     fill="#444444">
    <g
       id="g3">
      <path
         fill="none"
         d="M 84.771,24.581 C 81.117,22.923 77.339,21.208 74.572,18.08 67.946,10.588 61.821,7.1 55.297,7.1 45.471,7.1 35.131,15.424 24.185,24.236 9.616,35.953 4.164,50.915 9.225,65.285 c 5.152,14.627 20.463,25.659 35.616,25.661 10e-4,0 0.003,0 0.003,0 13.964,0 25.645,-8.868 32.891,-24.973 3.669,-8.154 7.748,-12.598 11.025,-16.168 3.622,-3.945 6.238,-6.796 6.524,-12.779 0.36,-7.511 -4.679,-9.798 -10.513,-12.445 z M 62.119,54.52 C 60.762,63.931 52.031,70.462 42.619,69.105 33.207,67.748 26.678,59.018 28.036,49.605 29.393,40.192 38.123,33.664 47.535,35.02 c 9.412,1.357 15.942,10.087 14.584,19.5 z"
         id="path1" />
      <path
         d="M 85.886,22.122 C 82.49,20.581 78.98,18.988 76.594,16.29 69.516,8.289 62.55,4.399 55.296,4.399 44.518,4.399 33.818,13.013 22.491,22.132 6.977,34.61 1.213,50.666 6.678,66.182 c 5.604,15.912 21.654,27.463 38.162,27.465 0.002,0 0.002,0 0.004,0 8.742,0 24.955,-3.453 35.354,-26.565 3.49,-7.757 7.405,-12.021 10.552,-15.449 3.854,-4.2 6.899,-7.517 7.232,-14.476 0.447,-9.344 -5.93,-12.237 -12.096,-15.035 z m 9.399,14.905 c -0.286,5.983 -2.902,8.833 -6.524,12.779 -3.277,3.57 -7.356,8.014 -11.025,16.168 -7.246,16.104 -18.927,24.973 -32.891,24.973 0,0 -0.002,0 -0.003,0 C 29.688,90.944 14.377,79.912 9.225,65.285 4.163,50.915 9.616,35.953 24.183,24.235 35.13,15.423 45.47,7.099 55.296,7.099 c 6.524,0 12.649,3.489 19.275,10.98 2.768,3.128 6.545,4.843 10.199,6.501 5.835,2.648 10.874,4.935 10.515,12.447 z"
         id="path2" />
      <path
         d="m 47.534,35.02 c -9.412,-1.356 -18.142,5.172 -19.499,14.585 -1.358,9.413 5.171,18.143 14.583,19.5 9.413,1.357 18.143,-5.174 19.5,-14.585 1.359,-9.413 -5.171,-18.143 -14.584,-19.5 z m -5.05,31.494 c -0.531,-0.077 -0.899,-0.57 -0.823,-1.101 0.076,-0.531 0.569,-0.9 1.101,-0.823 7.025,1.013 13.565,-3.877 14.577,-10.904 0.078,-0.531 0.569,-0.899 1.102,-0.822 0.529,0.076 0.898,0.568 0.823,1.1 -1.167,8.085 -8.693,13.716 -16.78,12.55 z M 59.488,50.138 c -0.087,0.61 -0.655,1.038 -1.269,0.949 -0.614,-0.089 -1.037,-0.659 -0.95,-1.268 0.089,-0.614 0.656,-1.039 1.271,-0.95 0.612,0.089 1.037,0.656 0.948,1.269 z"
         id="path3" />
    </g>
  </g>
  <g
     id="SvgjsG1498"
     featurekey="nameFeature-0"
     transform="matrix(4.1517455,0,0,4.1517455,117.82561,4.3242886)"
     fill="#444444">
    <path
       d="m 2.299465,14.090909 0.548128,0.40107 v 3.42246 H 4.999999 V 14.09091 H 2.299464 Z M 2.847594,8.55615 v 3.409091 H 5 V 8.141712 H 2.299465 Z M 6.84492,7.352941 v 4.34492 c 0,0.748663 -0.614973,1.323529 -1.323529,1.323529 0.708556,0 1.323529,0.614973 1.323529,1.323529 v 4.358289 c 0,0.748663 -0.614973,1.323529 -1.323529,1.323529 H 1.002674 V 6.43048 L 0.668449,6.02941 H 5.52139 c 0.708556,0 1.323529,0.614973 1.323529,1.323529 z m 4.273062,12.620321 H 9.273062 V 6.390374 L 8.938837,5.975935 h 2.179144 v 13.997326 z m 8.136697,-12.63369 v 2.887701 H 17.423128 V 8.114974 h -2.700535 l 0.534759,0.414439 v 1.697861 l 3.997326,4.906417 v 2.112299 1.44385 c 0,0.708556 -0.574866,1.323529 -1.323529,1.323529 h -3.181818 c -0.748663,0 -1.323529,-0.614973 -1.323529,-1.323529 v -2.981283 h 1.831551 v 2.192513 h 2.165775 V 15.788771 L 13.425802,10.882354 V 7.339573 c 0,-0.748663 0.574866,-1.323529 1.323529,-1.323529 h 3.181818 c 0.748663,0 1.323529,0.574866 1.323529,1.323529 z m 3.952206,0.762032 H 21.214906 V 5.975936 h 5.828877 v 2.125668 h -2.540107 l 0.548128,0.40107 v 11.483957 h -1.84492 V 8.101604 Z m 8.069853,3.810161 h 2.152406 V 8.074867 h -2.700535 l 0.548128,0.414439 v 3.42246 z m 3.983957,-4.6123 v 5.40107 c 0,0.748663 -0.574866,1.323529 -1.323529,1.323529 h -0.254011 l 1.57754,5.949198 h -1.898396 l -1.57754,-5.949198 h -1.05615 l 0.548128,0.414439 v 5.534759 h -1.84492 V 8.074866 6.377005 l -0.334225,-0.414439 4.839572,0.013369 c 0.748663,0 1.323529,0.574866 1.323529,1.323529 z m 4.179479,10.601605 h 2.165775 V 8.128343 h -2.700535 l 0.534759,0.414439 v 9.358289 z M 43.4375,7.339572 v 11.350267 c 0,0.748663 -0.574866,1.323529 -1.323529,1.323529 h -3.181818 c -0.748663,0 -1.323529,-0.574866 -1.323529,-1.323529 V 7.339572 c 0,-0.708556 0.574866,-1.323529 1.323529,-1.323529 h 3.181818 c 0.748663,0 1.323529,0.614973 1.323529,1.323529 z M 50.807152,6.390374 50.472927,5.975935 h 5.254011 v 2.112299 h -3.622995 l 0.548128,0.414439 v 3.42246 h 2.152406 v 2.112299 h -2.700535 l 0.548128,0.414439 v 5.52139 H 50.80715 V 6.390373 Z M 59.826204,17.90107 H 61.97861 V 8.128343 h -2.700535 l 0.548128,0.414439 v 9.358289 z M 63.82353,7.339572 v 11.350267 c 0,0.748663 -0.588235,1.323529 -1.336898,1.323529 H 57.981284 V 17.901069 6.430481 L 57.647059,6.016042 h 4.839572 c 0.735294,0 1.336898,0.614973 1.336898,1.323529 z m 4.28643,12.63369 H 66.26504 V 6.390374 L 65.930815,5.975935 h 2.179144 v 13.997326 z"
       id="path4" />
  </g>
</svg>
