<?xml version="1.0" encoding="UTF-8" standalone="no"?>
<svg
   width="400"
   height="100"
   viewBox="0 0 351.7287 87.932166"
   class="looka-1j8o68f"
   version="1.1"
   id="svg3"
   sodipodi:docname="logo1.svg"
   inkscape:version="1.4.3 (fcd0343856, 2026-01-01)"
   inkscape:export-filename="logo1.png"
   inkscape:export-xdpi="96"
   inkscape:export-ydpi="96"
   xmlns:inkscape="http://www.inkscape.org/namespaces/inkscape"
   xmlns:sodipodi="http://sodipodi.sourceforge.net/DTD/sodipodi-0.dtd"
   xmlns="http://www.w3.org/2000/svg"
   xmlns:svg="http://www.w3.org/2000/svg">
  <sodipodi:namedview
     id="namedview3"
     pagecolor="#ffffff"
     bordercolor="#000000"
     borderopacity="0.25"
     inkscape:showpageshadow="2"
     inkscape:pageopacity="0.0"
     inkscape:pagecheckerboard="0"
     inkscape:deskcolor="#d1d1d1"
     showguides="true"
     inkscape:zoom="2.68"
     inkscape:cx="164.92537"
     inkscape:cy="36.940299"
     inkscape:window-width="1920"
     inkscape:window-height="1084"
     inkscape:window-x="0"
     inkscape:window-y="0"
     inkscape:window-maximized="1"
     inkscape:current-layer="svg3">
    <sodipodi:guide
       position="95.806698,43.637978"
       orientation="0,-1"
       id="guide3"
       inkscape:locked="false" />
    <sodipodi:guide
       position="175.53624,118.11783"
       orientation="1,0"
       id="guide4"
       inkscape:locked="false" />
  </sodipodi:namedview>
  <defs
     id="SvgjsDefs1304" />
  <g
     id="SvgjsG1305"
     featurekey="nameLeftFeature-0"
     transform="matrix(3.071635,0,0,3.071635,29.116755,4.8250594)"
     fill="#444444">
    <path
       d="m 2.299465,14.090909 0.548128,0.40107 v 3.42246 H 4.999999 V 14.09091 H 2.299464 Z M 2.847594,8.55615 v 3.409091 H 5 V 8.141712 H 2.299465 Z M 6.84492,7.352941 v 4.34492 c 0,0.748663 -0.614973,1.323529 -1.323529,1.323529 0.708556,0 1.323529,0.614973 1.323529,1.323529 v 4.358289 c 0,0.748663 -0.614973,1.323529 -1.323529,1.323529 H 1.002674 V 6.43048 L 0.668449,6.02941 H 5.52139 c 0.708556,0 1.323529,0.614973 1.323529,1.323529 z m 4.273062,12.620321 H 9.273062 V 6.390374 L 8.938837,5.975935 h 2.179144 v 13.997326 z m 8.136697,-12.63369 v 2.887701 H 17.423128 V 8.114974 h -2.700535 l 0.534759,0.414439 v 1.697861 l 3.997326,4.906417 v 2.112299 1.44385 c 0,0.708556 -0.574866,1.323529 -1.323529,1.323529 h -3.181818 c -0.748663,0 -1.323529,-0.614973 -1.323529,-1.323529 v -2.981283 h 1.831551 v 2.192513 h 2.165775 V 15.788771 L 13.425802,10.882354 V 7.339573 c 0,-0.748663 0.574866,-1.323529 1.323529,-1.323529 h 3.181818 c 0.748663,0 1.323529,0.574866 1.323529,1.323529 z m 3.952206,0.762032 H 21.214906 V 5.975936 h 5.828877 v 2.125668 h -2.540107 l 0.548128,0.40107 v 11.483957 h -1.84492 V 8.101604 Z m 8.069853,3.810161 h 2.152406 V 8.074867 h -2.700535 l 0.548128,0.414439 v 3.42246 z m 3.983957,-4.6123 v 5.40107 c 0,0.748663 -0.574866,1.323529 -1.323529,1.323529 h -0.254011 l 1.57754,5.949198 h -1.898396 l -1.57754,-5.949198 h -1.05615 l 0.548128,0.414439 v 5.534759 h -1.84492 V 8.074866 6.377005 l -0.334225,-0.414439 4.839572,0.013369 c 0.748663,0 1.323529,0.574866 1.323529,1.323529 z m 4.179479,10.601605 h 2.165775 V 8.128343 h -2.700535 l 0.534759,0.414439 v 9.358289 z M 43.4375,7.339572 v 11.350267 c 0,0.748663 -0.574866,1.323529 -1.323529,1.323529 h -3.181818 c -0.748663,0 -1.323529,-0.574866 -1.323529,-1.323529 V 7.339572 c 0,-0.708556 0.574866,-1.323529 1.323529,-1.323529 h 3.181818 c 0.748663,0 1.323529,0.614973 1.323529,1.323529 z"
       id="path1" />
  </g>
  <g
     id="SvgjsG1306"
     featurekey="inlineSymbolFeature-0"
     transform="matrix(18.18692,0,0,18.18692,163.72844,-0.93650626)"
     fill="#444444">
    <g
       id="g3">
      <g
         id="g1">
        <polygon
           fill="#444444"
           points="3.985,1.544 3.76,1.934 2.556,1.238 1.464,1.87 1.464,3.131 2.558,3.762 3.762,3.065 3.986,3.456 2.558,4.282 1.015,3.392 1.014,1.61 2.556,0.719 "
           id="polygon1" />
      </g>
      <g
         id="g2">
        <polygon
           fill="#444444"
           points="2.946,2.719 2.946,2.268 2.557,2.043 2.054,2.333 1.829,1.944 2.556,1.523 3.396,2.008 3.396,2.979 2.557,3.464 1.829,3.045 2.054,2.654 2.557,2.944 "
           id="polygon2" />
      </g>
    </g>
  </g>
  <g
     id="SvgjsG1307"
     featurekey="nameRightFeature-0"
     transform="matrix(3.0125523,0,0,3.0125523,238.774,6.0285923)"
     fill="#444444">
    <path
       d="m 10.4745,10.62 v 1.88 h -2.82 v 7.46 h -1.88 V 5.72 h 4.66 v 1.9 h -2.78 v 3 z m 5.2745,9.4 h -2.5 V 5.76 h 2.5 c 1.7,0 3.06,1.38 3.06,3.08 v 8.1 c 0,0.82 -0.32,1.6 -0.9,2.18 -0.58,0.58 -1.34,0.9 -2.16,0.9 z M 15.149,7.68 V 18.1 h 0.6 c 0.3,0 0.6,-0.12 0.82,-0.34 0.22,-0.22 0.34,-0.5 0.34,-0.82 v -8.1 c 0,-0.64 -0.52,-1.16 -1.16,-1.16 z m 8.3345,-2 v 14.24 h -1.9 V 5.68 Z"
       id="path3" />
  </g>
</svg>
